<?xml version="1.0" encoding="utf-8"?>
<!-- Generator: Adobe Illustrator 22.0.1, SVG Export Plug-In . SVG Version: 6.00 Build 0)  -->
<svg version="1.1" xmlns="http://www.w3.org/2000/svg" xmlns:xlink="http://www.w3.org/1999/xlink" x="0px" y="0px"
	 viewBox="0 0 1080 720" style="enable-background:new 0 0 1080 720;" xml:space="preserve">
<style type="text/css">
	.st0{fill:url(#SVGID_1_);}
	.st1{fill:url(#SVGID_2_);}
	.st2{fill:url(#SVGID_3_);}
	.st3{fill:url(#SVGID_4_);}
	.st4{fill:url(#SVGID_5_);}
</style>
<g id="Capa_1">
</g>
<g id="Capa_2">
	<g id="Capa_3">
	</g>
	
		<linearGradient id="SVGID_1_" gradientUnits="userSpaceOnUse" x1="391.972" y1="463.8404" x2="674.6999" y2="463.8404" gradientTransform="matrix(0.9983 5.842670e-02 -5.842670e-02 0.9983 27.411 -30.8351)">
		<stop  offset="0" style="stop-color:#050505"/>
		<stop  offset="0.4175" style="stop-color:#D1D1D1"/>
		<stop  offset="1" style="stop-color:#000000"/>
	</linearGradient>
	<path class="st0" d="M640.8,508.9l0.2,0.4c1.7,3.3-0.3,9.8-3.7,11.9l-19.8,12.2c-1.4,0.9-2.8,0.8-3.8-0.2l-0.1-0.1
		c-4.3,9.2-12.9,18-22.7,22.4c-14.1,6.3-25.4,1-24.6-12c0.8-13.1,13.2-28.3,27.3-33.8c2.1-0.8,4.1-1.3,6-1.6
		c0.4-0.6,0.8-1.2,1.2-1.7l7.3-8.2c2.7-3,3.7-8.2,2.2-11c-1.4-2.6-0.7-7.1,1.6-10.2l13.2-17.8c0.4-0.5,0.7-1.1,1-1.7l26.2-53.7
		c0.8-1.7,1.2-3.6,1.1-5.4l-0.2-4.2c-0.1-1.9-0.7-3.4-1.8-4.1l-15.6-11.2c-1.9-1.4-2.5-5.1-1.2-8.5l1.9-5.2
		c-24.5-26.5-58.9-44-97.8-46.3c-42.5-2.5-81.8,13.7-110,41.4l4.9,21.5c0.8,3.5-0.1,7.1-2.2,8.3l-16.7,9.2c-1.1,0.6-1.9,2-2.2,3.9
		l-0.7,4.1c-0.3,1.7-0.1,3.7,0.5,5.4l19.6,56c0.2,0.6,0.5,1.2,0.8,1.8l10.9,19.1c1.9,3.3,2.1,7.9,0.4,10.3
		c-1.8,2.6-1.4,7.8,0.9,11.1l6.2,9c0.4,0.6,0.7,1.2,1,1.8c1.9,0.5,3.8,1.3,5.8,2.3c13.2,7,23.7,23.4,23,36.4s-12.4,16.9-25.6,9
		c-9.2-5.5-16.6-15.2-19.7-24.7l-0.1,0.1c-1.1,0.9-2.4,0.8-3.7-0.3L413.6,530c-3.1-2.4-4.3-9.1-2.2-12.2l0.2-0.3
		c2.3-3.4,0.6-10.8-2.9-12.5l-19.5-9.6c13.9,61.1,66.8,108.3,132.6,112.2C596.4,612,661.1,559,673,486.9l-27.8,9.9
		C641.5,498,638.9,505.2,640.8,508.9z"/>
	
		<linearGradient id="SVGID_2_" gradientUnits="userSpaceOnUse" x1="219.023" y1="283.6689" x2="410.1936" y2="283.6689" gradientTransform="matrix(0.9978 -6.681617e-02 6.681617e-02 0.9978 -26.9271 21.7728)">
		<stop  offset="0" style="stop-color:#050505"/>
		<stop  offset="0.4175" style="stop-color:#D1D1D1"/>
		<stop  offset="1" style="stop-color:#000000"/>
	</linearGradient>
	<path class="st1" d="M406.3,352L304.2,74.1c-1.5-4.1-5-3.2-5.9,1.5l-21.4,109.3c-0.4,2-0.1,4.4,0.8,6.1l16.9,31.5
		c3,5.5-0.8,12.8-4,7.9l-50-76.2c-1.7-2.5-3.9-0.7-4.1,3.3l-4.2,86.3c-0.1,2.1,0.5,4.3,1.5,5.5l37.6,46.2c3.1,3.8,1.5,12-1.8,9.4
		L230,274.6c-1.4-1-2.7,0.2-2.9,2.9l-10.4,102.8c-0.3,2.9,0.9,6.3,2.5,7.1L347,446.9c2.9,1.3,4.8,7.2,3.4,10.5l-4.5,11.1
		c-1.4,3.5,0.8,9.7,3.8,10.7l34.3,11.8c-4.6-12.6-7.5-25.9-8.5-39.9C373.1,414,384.9,379.1,406.3,352z"/>
	
		<linearGradient id="SVGID_3_" gradientUnits="userSpaceOnUse" x1="430.5015" y1="539.3168" x2="449.4205" y2="539.3168" gradientTransform="matrix(0.9921 0.1256 -0.1256 0.9921 61.226 -64.364)">
		<stop  offset="0" style="stop-color:#050505"/>
		<stop  offset="0.4175" style="stop-color:#D1D1D1"/>
		<stop  offset="1" style="stop-color:#000000"/>
	</linearGradient>
	<path class="st2" d="M420.4,526.3c-0.4,3.4-0.1,7.1,0.9,10.9l16.8-11.9c2.2-1.6,2.8-6.2,1.4-10
		C429.6,511.8,421.7,516.1,420.4,526.3z"/>
	
		<linearGradient id="SVGID_4_" gradientUnits="userSpaceOnUse" x1="643.8135" y1="244.4314" x2="841.1315" y2="244.4314" gradientTransform="matrix(0.9924 0.1228 -0.1228 0.9924 57.7203 -70.7996)">
		<stop  offset="0" style="stop-color:#050505"/>
		<stop  offset="0.4175" style="stop-color:#D1D1D1"/>
		<stop  offset="1" style="stop-color:#000000"/>
	</linearGradient>
	<path class="st3" d="M851,366.9l-4.6-104c-0.1-2.6-1.4-4-2.8-3L802.1,288c-3.5,2.4-4.7-5.9-1.3-9.6l40.5-44.4
		c1.1-1.2,1.8-3.3,1.8-5.5l0.7-87.1c0-4-2.2-6-4-3.5l-54.7,73.8c-3.5,4.7-6.9-2.9-3.6-8.2l18.8-30.7c1-1.6,1.4-4,1.2-6.1L786.1,55.8
		c-0.7-4.8-4.1-5.9-5.8-1.9L655.2,343c23.9,29.5,36.2,68.2,31.2,108.8c-0.6,5.1-1.5,10.1-2.7,15.1l27.8-7.9c3.1-0.9,5.6-7,4.4-10.6
		l-3.9-11.5c-1.2-3.4,1.1-9.2,4-10.4l132-52.7C849.7,373.2,851.1,369.8,851,366.9z"/>
	
		<linearGradient id="SVGID_5_" gradientUnits="userSpaceOnUse" x1="593.2996" y1="517.4219" x2="612.3635" y2="517.4219" gradientTransform="matrix(0.9921 0.1256 -0.1256 0.9921 61.226 -64.364)">
		<stop  offset="0" style="stop-color:#050505"/>
		<stop  offset="0.4175" style="stop-color:#D1D1D1"/>
		<stop  offset="1" style="stop-color:#000000"/>
	</linearGradient>
	<path class="st4" d="M586.6,522l13.4,15.8c1.9-3.4,3.2-7,3.6-10.4c1.3-10.3-5.4-16.4-15.9-15.5C585.4,515.3,584.8,519.9,586.6,522z
		"/>
	<g>
		<g>
			<path d="M532.6,377c4.6-2.4,9.5-4.5,14.9-6.5c5.3-2,10.5-3.6,15.6-4.8c5.3-1.3,10.5-1.9,15.7-1.9c5.1,0,9.7,1.4,13.7,4.1
				c4,2.7,7.2,7,9.7,12.9c2.5,5.9,3.7,14,3.7,24.4c0,9.2-1.1,17.3-3.2,24.6c-2.1,7.3-5,13.7-8.6,19.2c-3.6,5.6-7.8,10.2-12.5,13.9
				c-4.8,3.7-9.8,6.5-15,8.4c-0.5,0.2-1.3,0.5-2.4,0.9c-1.1,0.4-2.3,0.8-3.5,1.2c-1.2,0.4-2.4,0.7-3.6,1c-1.2,0.3-2,0.4-2.6,0.5
				v54.9l-21.9,9.3V377z M564.8,391.8c-2,0.6-4,1.2-5.8,1.9c-1.9,0.7-3.4,1.4-4.5,2v51.8c0.4,0,1,0,1.9-0.2c0.8-0.1,1.7-0.3,2.6-0.5
				c0.9-0.2,1.8-0.5,2.7-0.8c0.9-0.3,1.5-0.5,1.9-0.6c2.7-0.9,5.4-2.2,8.1-3.8c2.6-1.6,5-3.8,7.1-6.4c2.1-2.7,3.7-6,4.9-9.9
				c1.2-3.9,1.8-8.7,1.8-14.4c0-4.8-0.6-8.7-1.7-11.5c-1.2-2.8-2.7-4.9-4.6-6.3c-1.9-1.4-4.1-2.1-6.6-2.2
				C570,390.8,567.4,391.1,564.8,391.8z"/>
		</g>
	</g>
	<g>
		<g>
			<path d="M450.7,461.6l15.8,5.8v21.8c0.3,0.3,0.6,0.5,0.9,0.8c2.2,2.4,4.7,4.6,7.5,6.6c2.7,2.1,5.7,3.7,8.8,5
				c5.7,2.3,10.2,2.4,13.4,0.2c3.2-2.2,4.9-6.2,4.9-12c0-5.2-1.3-9.9-4-14.1c-2.7-4.2-5.9-8.1-9.8-11.9c-3.8-3.7-8-7.6-12.4-11.5
				c-4.4-3.9-8.4-8.2-12.1-13.1c-3.6-4.8-6.6-10.2-9-16.4c-2.4-6.1-3.6-13.4-3.6-21.9c0-6.5,0.8-12.2,2.5-17.2c1.7-5,4-9.1,7-12.2
				c3-3.2,6.7-5.3,11-6.5c4.4-1.2,9.3-1.1,14.7,0.2c6.3,1.5,12.5,3.9,18.7,7.1c6.3,3.2,11.4,6.8,15.2,10.8v47.6l-17.8-5.4v-25.5
				c-0.3-0.1-0.6-0.2-1-0.5c-2.3-1.6-4.8-3-7.5-4.2c-2.6-1.3-5.2-2.2-7.8-2.9c-4.9-1.3-8.7-0.9-11.4,1.1c-2.7,2.1-4.1,5.4-4.1,10.2
				c0,4.9,1.3,9.2,3.8,13.1c2.5,3.9,5.7,7.7,9.5,11.4c3.8,3.8,8,7.7,12.7,11.7c4.7,4.1,9,8.7,13,13.8c4,5.2,7.5,11.1,10.3,17.8
				c2.8,6.8,4.2,14.6,4.2,23.4c0,8.5-1.1,15.5-3.3,20.9c-2.2,5.4-5.3,9.5-9.2,12.1c-3.9,2.6-8.4,3.9-13.6,3.7
				c-5.1-0.1-10.6-1.4-16.3-3.9c-3.8-1.6-7.3-3.6-10.5-5.9c-3.2-2.2-6.1-4.6-8.8-7c-2.6-2.4-5-4.8-7-7.1c-2-2.3-3.6-4.2-4.8-5.7
				V461.6z"/>
		</g>
	</g>
</g>
</svg>
